<svg width="170" height="170" viewBox="0 0 170 170" fill="none" xmlns="http://www.w3.org/2000/svg">
<path d="M123.958 85C121.14 85 118.438 83.8806 116.445 81.888C114.453 79.8954 113.333 77.1929 113.333 74.375C113.333 71.5571 114.453 68.8546 116.445 66.862C118.438 64.8694 121.14 63.75 123.958 63.75C126.776 63.75 129.479 64.8694 131.471 66.862C133.464 68.8546 134.583 71.5571 134.583 74.375C134.583 77.1929 133.464 79.8954 131.471 81.888C129.479 83.8806 126.776 85 123.958 85ZM102.708 56.6667C99.8904 56.6667 97.1879 55.5473 95.1953 53.5547C93.2028 51.5621 92.0833 48.8596 92.0833 46.0417C92.0833 43.2237 93.2028 40.5212 95.1953 38.5287C97.1879 36.5361 99.8904 35.4167 102.708 35.4167C105.526 35.4167 108.229 36.5361 110.221 38.5287C112.214 40.5212 113.333 43.2237 113.333 46.0417C113.333 48.8596 112.214 51.5621 110.221 53.5547C108.229 55.5473 105.526 56.6667 102.708 56.6667ZM67.2917 56.6667C64.4737 56.6667 61.7712 55.5473 59.7787 53.5547C57.7861 51.5621 56.6667 48.8596 56.6667 46.0417C56.6667 43.2237 57.7861 40.5212 59.7787 38.5287C61.7712 36.5361 64.4737 35.4167 67.2917 35.4167C70.1096 35.4167 72.8121 36.5361 74.8047 38.5287C76.7973 40.5212 77.9167 43.2237 77.9167 46.0417C77.9167 48.8596 76.7973 51.5621 74.8047 53.5547C72.8121 55.5473 70.1096 56.6667 67.2917 56.6667ZM46.0417 85C43.2237 85 40.5212 83.8806 38.5287 81.888C36.5361 79.8954 35.4167 77.1929 35.4167 74.375C35.4167 71.5571 36.5361 68.8546 38.5287 66.862C40.5212 64.8694 43.2237 63.75 46.0417 63.75C48.8596 63.75 51.5621 64.8694 53.5547 66.862C55.5473 68.8546 56.6667 71.5571 56.6667 74.375C56.6667 77.1929 55.5473 79.8954 53.5547 81.888C51.5621 83.8806 48.8596 85 46.0417 85ZM85 21.25C68.0924 21.25 51.8774 27.9665 39.9219 39.9219C27.9665 51.8774 21.25 68.0924 21.25 85C21.25 101.908 27.9665 118.123 39.9219 130.078C51.8774 142.034 68.0924 148.75 85 148.75C87.8179 148.75 90.5204 147.631 92.513 145.638C94.5056 143.645 95.625 140.943 95.625 138.125C95.625 135.363 94.5625 132.883 92.8625 131.042C91.2333 129.129 90.1708 126.65 90.1708 123.958C90.1708 121.14 91.2903 118.438 93.2828 116.445C95.2754 114.453 97.9779 113.333 100.796 113.333H113.333C122.726 113.333 131.735 109.602 138.377 102.96C145.019 96.3181 148.75 87.3098 148.75 77.9167C148.75 46.6083 120.204 21.25 85 21.25Z" fill="#F9C5D5"/>
</svg>
