<svg width="170" height="170" viewBox="0 0 170 170" fill="none" xmlns="http://www.w3.org/2000/svg">
<path d="M47.6001 64.5599L23.0696 84.9998L47.6001 105.44C48.4136 106.106 49.0871 106.927 49.5817 107.856C50.0764 108.784 50.3823 109.801 50.4819 110.848C50.5816 111.895 50.4729 112.952 50.1623 113.957C49.8516 114.962 49.3451 115.895 48.6719 116.703C47.9987 117.511 47.1722 118.178 46.24 118.665C45.3078 119.153 44.2883 119.45 43.2405 119.542C42.1926 119.633 41.137 119.516 40.1346 119.197C39.1322 118.879 38.2029 118.365 37.4001 117.685L5.52509 91.1224C4.62735 90.3746 3.90505 89.4385 3.40937 88.3804C2.91368 87.3223 2.65674 86.1682 2.65674 84.9998C2.65674 83.8313 2.91368 82.6772 3.40937 81.6191C3.90505 80.5611 4.62735 79.625 5.52509 78.8771L37.4001 52.3146C39.0262 50.982 41.1131 50.346 43.206 50.5451C45.299 50.7443 47.2284 51.7625 48.574 53.3779C49.9196 54.9933 50.5723 57.075 50.3898 59.1695C50.2074 61.2639 49.2047 63.2015 47.6001 64.5599ZM164.475 78.8771L132.6 52.3146C131.797 51.635 130.868 51.121 129.866 50.8023C128.863 50.4836 127.808 50.3665 126.76 50.4578C125.712 50.5491 124.692 50.8469 123.76 51.3341C122.828 51.8212 122.001 52.4882 121.328 53.2963C120.655 54.1045 120.149 55.038 119.838 56.0429C119.527 57.0478 119.419 58.1043 119.518 59.1514C119.618 60.1985 119.924 61.2155 120.418 62.1438C120.913 63.072 121.587 63.8932 122.4 64.5599L146.931 84.9998L122.4 105.44C121.587 106.106 120.913 106.927 120.418 107.856C119.924 108.784 119.618 109.801 119.518 110.848C119.419 111.895 119.527 112.952 119.838 113.957C120.149 114.962 120.655 115.895 121.328 116.703C122.001 117.511 122.828 118.178 123.76 118.665C124.692 119.153 125.712 119.45 126.76 119.542C127.808 119.633 128.863 119.516 129.866 119.197C130.868 118.879 131.797 118.365 132.6 117.685L164.475 91.1224C165.373 90.3746 166.095 89.4385 166.591 88.3804C167.087 87.3223 167.343 86.1682 167.343 84.9998C167.343 83.8313 167.087 82.6772 166.591 81.6191C166.095 80.5611 165.373 79.625 164.475 78.8771ZM108.973 19.0716C107.989 18.7139 106.945 18.5535 105.899 18.5995C104.853 18.6455 103.827 18.8971 102.878 19.3399C101.93 19.7826 101.078 20.4079 100.371 21.18C99.6646 21.9521 99.1169 22.8558 98.7595 23.8396L56.2595 140.715C55.5391 142.7 55.6366 144.891 56.5307 146.805C57.4248 148.719 59.0422 150.199 61.0274 150.921C61.8991 151.243 62.821 151.407 63.7501 151.406C65.3862 151.406 66.9827 150.903 68.3228 149.964C69.663 149.026 70.6817 147.698 71.2407 146.16L113.741 29.2849C114.098 28.3013 114.259 27.2567 114.213 26.2111C114.167 25.1654 113.915 24.139 113.472 23.1906C113.03 22.2421 112.404 21.3902 111.632 20.6835C110.86 19.9767 109.957 19.429 108.973 19.0716Z" fill="#F9C5D5"/>
</svg>
