<svg width="70" height="70" viewBox="0 0 70 70" fill="none" xmlns="http://www.w3.org/2000/svg">
<path d="M60.9002 9.03891C58.7622 6.901 56.1897 5.8335 53.1797 5.8335H16.7593C13.7493 5.8335 11.1768 6.901 9.03891 9.03891C6.901 11.1768 5.8335 13.7493 5.8335 16.7593V53.1797C5.8335 56.1897 6.901 58.7622 9.03891 60.9002C11.1768 63.0381 13.7493 64.1056 16.7593 64.1056H25.2585C25.8127 64.1056 26.2297 64.0852 26.5097 64.0472C26.8355 63.9819 27.1296 63.8082 27.3439 63.5543C27.621 63.2627 27.761 62.8397 27.761 62.2856L27.7406 59.7043C27.7289 58.0593 27.7231 56.7585 27.7231 55.796L26.8481 55.9477C26.2939 56.0497 25.5939 56.0935 24.7452 56.0818C23.8605 56.0655 22.9787 55.9767 22.1085 55.8164C21.1822 55.6454 20.3102 55.2554 19.5652 54.6789C18.7849 54.0887 18.203 53.2748 17.8968 52.3456L17.5177 51.4706C17.1981 50.7804 16.7966 50.1311 16.3218 49.5368C15.7793 48.8281 15.2281 48.3497 14.671 48.096L14.4085 47.9064C14.2255 47.7753 14.059 47.6225 13.9127 47.4514C13.7729 47.2926 13.6579 47.1136 13.5714 46.9206C13.4956 46.7427 13.5597 46.5968 13.761 46.4831C13.9652 46.3664 14.3297 46.311 14.8635 46.311L15.6218 46.4277C16.1264 46.5268 16.7535 46.8302 17.4972 47.3347C18.2499 47.8479 18.8787 48.5225 19.3377 49.3093C19.921 50.3447 20.621 51.1352 21.4435 51.6806C22.266 52.2231 23.0943 52.4972 23.9285 52.4972C24.7627 52.4972 25.4831 52.4331 26.0927 52.3077C26.6822 52.1858 27.255 51.9939 27.7989 51.736C28.0264 50.0443 28.6447 48.7377 29.6568 47.8277C28.3454 47.6991 27.0457 47.4709 25.7689 47.1452C24.5229 46.8029 23.3246 46.3061 22.2018 45.6664C21.0271 45.0269 19.9896 44.1627 19.1481 43.1231C18.3402 42.111 17.6752 40.7839 17.156 39.1418C16.6397 37.4968 16.3802 35.5981 16.3802 33.4485C16.3802 30.3889 17.3777 27.7843 19.3756 25.6318C18.4422 23.3335 18.5297 20.7522 19.641 17.8968C20.376 17.6664 21.4639 17.8385 22.9047 18.4072C24.3456 18.976 25.4014 19.4631 26.0722 19.8656C26.7431 20.2739 27.2797 20.6152 27.6852 20.8922C30.0563 20.2324 32.5068 19.9007 34.9681 19.9064C37.4735 19.9064 39.9002 20.236 42.2539 20.8922L43.6947 19.9822C44.803 19.3168 45.972 18.7582 47.186 18.3139C48.5277 17.8064 49.5485 17.6693 50.2602 17.8968C51.3977 20.7552 51.4968 23.3335 50.5606 25.6347C52.5585 27.7843 53.5589 30.3889 53.5589 33.4514C53.5589 35.601 53.2993 37.5056 52.7802 39.1593C52.2639 40.816 51.5931 42.1431 50.7706 43.1435C49.9143 44.1698 48.8724 45.0257 47.6993 45.6664C46.4743 46.3489 45.2843 46.8418 44.1322 47.1452C42.8556 47.472 41.5558 47.7011 40.2443 47.8306C41.5568 48.9681 42.216 50.7618 42.216 53.2147V62.2856C42.216 62.7143 42.2772 63.0614 42.4056 63.3268C42.4646 63.4547 42.5487 63.5694 42.6529 63.6641C42.7571 63.7588 42.8793 63.8316 43.0122 63.8781C43.2922 63.9772 43.5372 64.0414 43.7531 64.0647C43.9689 64.0939 44.2781 64.1027 44.6806 64.1027H53.1797C56.1897 64.1027 58.7622 63.0352 60.9002 60.8972C63.0352 58.7622 64.1056 56.1868 64.1056 53.1768V16.7593C64.1056 13.7493 63.0381 11.1768 60.9002 9.03891Z" fill="#F999B7"/>
</svg>
