<svg width="170" height="170" viewBox="0 0 170 170" fill="none" xmlns="http://www.w3.org/2000/svg">
<path d="M85.0002 28.3332C80.3039 28.3332 76.3443 32.2148 76.3443 37.1873C76.3443 42.1598 80.3039 46.0415 85.0002 46.0415C89.6964 46.0415 93.656 42.1598 93.656 37.1873C93.656 32.2148 89.6964 28.3332 85.0002 28.3332ZM62.1777 37.1873C62.1777 24.5578 72.3068 14.1665 85.0002 14.1665C97.6864 14.1665 107.823 24.5578 107.823 37.1873C107.833 42.027 106.318 46.7467 103.492 50.676C100.667 54.6052 96.6747 57.544 92.0835 59.0748V64.9965L119.347 80.934V112.504L125.141 115.416C129.272 111.784 134.587 109.784 140.087 109.792C152.788 109.792 162.917 120.183 162.917 132.812C162.917 145.442 152.781 155.833 140.094 155.833C127.408 155.833 117.272 145.442 117.272 132.812C117.272 131.027 117.47 129.285 117.853 127.606L112.519 124.929L85.0002 141.015L57.4814 124.936L52.1477 127.613C52.5302 129.285 52.7285 131.027 52.7285 132.812C52.7285 145.442 42.5993 155.833 29.906 155.833C17.2197 155.833 7.0835 145.442 7.0835 132.812C7.0835 120.183 17.2197 109.792 29.906 109.792C35.6435 109.792 40.871 111.917 44.866 115.423L50.6531 112.512V80.934L77.9168 64.9965V59.0819C73.3245 57.5507 69.3317 54.6108 66.5061 50.6802C63.6806 46.7495 62.1659 42.0282 62.1777 37.1873ZM85.0002 77.2648L64.8197 89.0657V112.809L85.0002 124.61L105.181 112.809V89.0657L85.0002 77.2648ZM37.0106 127.741C36.223 126.58 35.1644 125.629 33.9264 124.97C32.6884 124.311 31.3085 123.964 29.906 123.958C25.2168 123.958 21.2502 127.84 21.2502 132.812C21.2502 137.785 25.2097 141.667 29.906 141.667C34.6093 141.667 38.5618 137.785 38.5618 132.812C38.5618 131.778 38.3918 130.787 38.0802 129.866L37.0106 127.741ZM131.92 129.887C131.599 130.829 131.437 131.817 131.438 132.812C131.438 137.785 135.391 141.667 140.094 141.667C144.791 141.667 148.75 137.785 148.75 132.812C148.75 127.84 144.791 123.958 140.094 123.958C137.19 123.958 134.576 125.439 132.997 127.734L131.92 129.887Z" fill="#F9C5D5"/>
</svg>
