<svg width="936" height="967" viewBox="0 0 936 967" fill="none" xmlns="http://www.w3.org/2000/svg">
<g clip-path="url(#clip0_80_73)">
<path d="M43.4354 67.5332H-117.667C-124.06 67.5314 -130.34 69.0974 -135.873 72.0729C-141.407 75.0484 -145.998 79.3281 -149.182 84.4799C-152.367 89.6317 -154.032 95.4732 -154.011 101.414C-153.989 107.356 -152.281 113.187 -149.059 118.318L359.608 928.718C362.807 933.819 367.389 938.052 372.897 940.994C378.405 943.936 384.647 945.484 391 945.484C397.353 945.484 403.595 943.936 409.103 940.994C414.611 938.052 419.193 933.819 422.392 928.718L931.059 118.318C934.281 113.187 935.989 107.356 936.011 101.414C936.032 95.4732 934.367 89.6317 931.182 84.4799C927.998 79.3281 923.407 75.0484 917.874 72.0729C912.34 69.0974 906.06 67.5314 899.667 67.5332H738.565L391 605.909L43.4354 67.5332Z" fill="#F9C5D5" fill-opacity="0.25"/>
<path d="M653.835 67.5332H441.14L391 160.864L340.787 67.5332H128.165L391 474.624L653.835 67.5332Z" fill="#F9C5D5" fill-opacity="0.25"/>
</g>
<defs>
<clipPath id="clip0_80_73">
<rect width="1090" height="1013" fill="white" transform="translate(-154)"/>
</clipPath>
</defs>
</svg>
