<svg width="170" height="170" viewBox="0 0 170 170" fill="none" xmlns="http://www.w3.org/2000/svg">
<g clip-path="url(#clip0_74_24)">
<path d="M30.7929 11.3335H5.66688C4.66981 11.3332 3.69031 11.596 2.82729 12.0953C1.96426 12.5947 1.24827 13.3129 0.751604 14.1775C0.254938 15.042 -0.00481693 16.0223 -0.00143218 17.0194C0.00195256 18.0165 0.268357 18.995 0.770881 19.8562L80.1042 155.856C80.6031 156.712 81.3177 157.423 82.1768 157.916C83.0359 158.41 84.0094 158.67 85.0002 158.67C85.9911 158.67 86.9646 158.41 87.8236 157.916C88.6827 157.423 89.3973 156.712 89.8962 155.856L169.23 19.8562C169.732 18.995 169.998 18.0165 170.002 17.0194C170.005 16.0223 169.745 15.042 169.249 14.1775C168.752 13.3129 168.036 12.5947 167.173 12.0953C166.31 11.596 165.331 11.3332 164.334 11.3335H139.208L85.0002 101.683L30.7929 11.3335Z" fill="#F9C5D5"/>
<path d="M125.993 11.3335H92.82L85 26.9962L77.1687 11.3335H44.0073L85 79.6508L125.993 11.3335Z" fill="#F9C5D5"/>
</g>
<defs>
<clipPath id="clip0_74_24">
<rect width="170" height="170" fill="white"/>
</clipPath>
</defs>
</svg>
