<svg width="300" height="300" viewBox="0 0 300 300" fill="none" xmlns="http://www.w3.org/2000/svg">
<g clip-path="url(#clip0_80_78)">
<path d="M2.40234 22.3828C0.820312 20.0391 0 17.2266 0 14.4141C0 6.44531 6.44531 0 14.4141 0H78.457C85.0195 0 91.1719 3.45703 94.5117 9.08203L134.648 75.9375C106.406 79.5117 81.1523 92.6953 62.3438 112.207L2.40234 22.3828ZM297.539 22.3828L237.656 112.207C218.848 92.6953 193.594 79.5117 165.352 75.9375L205.488 9.08203C208.887 3.45703 214.98 0 221.543 0H285.586C293.555 0 300 6.44531 300 14.4141C300 17.2266 299.18 20.0391 297.598 22.3828H297.539ZM46.875 196.875C46.875 169.525 57.7399 143.294 77.0796 123.955C96.4193 104.615 122.65 93.75 150 93.75C177.35 93.75 203.581 104.615 222.92 123.955C242.26 143.294 253.125 169.525 253.125 196.875C253.125 224.225 242.26 250.456 222.92 269.795C203.581 289.135 177.35 300 150 300C122.65 300 96.4193 289.135 77.0796 269.795C57.7399 250.456 46.875 224.225 46.875 196.875ZM154.922 141.27C152.93 137.168 147.129 137.168 145.078 141.27L131.953 167.871C131.133 169.512 129.609 170.625 127.852 170.859L98.4375 175.137C93.9258 175.781 92.168 181.289 95.3906 184.512L116.66 205.254C117.949 206.543 118.535 208.301 118.242 210.117L113.203 239.355C112.441 243.809 117.129 247.266 121.172 245.156L147.422 231.328C149.004 230.508 150.938 230.508 152.52 231.328L178.77 245.156C182.812 247.266 187.5 243.867 186.738 239.355L181.699 210.117C181.406 208.359 181.992 206.543 183.281 205.254L204.551 184.512C207.832 181.348 206.016 175.84 201.504 175.137L172.148 170.859C170.391 170.625 168.809 169.453 168.047 167.871L154.922 141.27Z" fill="#F9C5D5" fill-opacity="0.25"/>
</g>
<defs>
<clipPath id="clip0_80_78">
<rect width="300" height="300" fill="white"/>
</clipPath>
</defs>
</svg>
