<svg width="220" height="300" viewBox="0 0 220 300" fill="none" xmlns="http://www.w3.org/2000/svg">
<path d="M219.947 110.039C219.958 91.5057 215.285 73.2705 206.362 57.0268C197.44 40.7831 184.557 27.0579 168.91 17.1258C153.263 7.19373 135.359 1.37705 116.863 0.216033C98.3663 -0.944988 79.8763 2.5873 63.1102 10.4848C46.3441 18.3823 31.8458 30.3889 20.9619 45.3894C10.0781 60.3898 3.16164 77.8976 0.855076 96.2865C-1.45149 114.675 0.926624 133.349 7.76853 150.573C14.6104 167.797 25.6942 183.012 39.9904 194.806V289.995C39.9891 291.7 40.424 293.377 41.2536 294.867C42.0832 296.356 43.28 297.609 44.7302 298.506C46.1804 299.402 47.8359 299.913 49.5392 299.99C51.2425 300.066 52.9371 299.706 54.4619 298.943L109.973 271.25L165.498 299.006C166.89 299.67 168.416 300.008 169.959 299.993C172.61 299.993 175.153 298.94 177.028 297.065C178.903 295.19 179.957 292.647 179.957 289.995V194.806C192.465 184.504 202.538 171.56 209.452 156.904C216.366 142.248 219.95 126.244 219.947 110.039ZM19.9952 110.039C19.9952 92.2427 25.2723 74.8463 35.1593 60.0495C45.0462 45.2526 59.0989 33.7199 75.5403 26.9097C91.9816 20.0994 110.073 18.3176 127.527 21.7894C144.981 25.2612 161.014 33.8308 173.598 46.4145C186.181 58.9982 194.751 75.0308 198.223 92.4848C201.695 109.939 199.913 128.031 193.103 144.472C186.292 160.913 174.76 174.966 159.963 184.853C145.166 194.74 127.769 200.017 109.973 200.017C86.1178 199.991 63.2469 190.502 46.3784 173.634C29.51 156.765 20.0216 133.894 19.9952 110.039ZM39.9904 110.039C39.9904 96.1974 44.0948 82.6669 51.7846 71.1582C59.4745 59.6496 70.4043 50.6796 83.1921 45.3828C95.9798 40.0859 110.051 38.7 123.626 41.4003C137.202 44.1007 149.672 50.7659 159.459 60.5532C169.246 70.3405 175.912 82.8103 178.612 96.3857C181.312 109.961 179.926 124.032 174.629 136.82C169.333 149.608 160.363 160.538 148.854 168.228C137.345 175.917 123.815 180.022 109.973 180.022C91.4189 180.002 73.6299 172.622 60.5098 159.502C47.3898 146.382 40.0102 128.593 39.9904 110.039Z" fill="#F9C5D5" fill-opacity="0.25"/>
</svg>
