<svg width="200" height="200" viewBox="0 0 200 200" fill="none" xmlns="http://www.w3.org/2000/svg">
<path d="M132.7 60.4999L131.908 61.1916L61.1916 131.9C60.2648 132.826 59.5693 133.957 59.1616 135.202C58.7539 136.447 58.6455 137.771 58.8452 139.066C59.0449 140.361 59.5471 141.59 60.3109 142.654C61.0748 143.719 62.0789 144.588 63.2416 145.192L64.2083 145.608L150.75 177.5C167.017 183.5 182.858 168.208 177.917 151.967L177.5 150.75L145.617 64.2083C145.195 63.0619 144.527 62.0222 143.659 61.1627C142.791 60.3033 141.745 59.6452 140.594 59.2349C139.444 58.8247 138.217 58.6723 137.001 58.7887C135.785 58.905 134.61 59.2873 133.558 59.9083L132.7 60.4999ZM57.4416 96.6999C49.8499 97.0999 39.4416 98.6999 30.3916 104.133C28.5569 105.221 27.2091 106.971 26.6258 109.022C26.0424 111.074 26.2679 113.271 27.2557 115.161C28.2436 117.052 29.9187 118.491 31.936 119.184C33.9534 119.876 36.1594 119.768 38.0999 118.883L38.9666 118.425C44.6499 115.008 51.9166 113.675 58.3166 113.342C60.9536 113.189 63.5976 113.2 66.2333 113.375L68.8666 113.633C71.0405 113.914 73.2373 113.327 74.9813 111.999C76.7252 110.671 77.8758 108.71 78.1838 106.539C78.4918 104.369 77.9324 102.165 76.6267 100.405C75.3211 98.644 73.3744 97.4687 71.2083 97.1333C66.6443 96.5437 62.034 96.3958 57.4416 96.6916M40.5666 73.4749C38.4433 73.4794 36.4018 74.2942 34.8589 75.7529C33.3161 77.2117 32.3882 79.2043 32.2648 81.324C32.1414 83.4437 32.8318 85.5306 34.1951 87.1585C35.5583 88.7864 37.4915 89.8325 39.5999 90.0833L40.5666 90.1416H46.4666C48.5899 90.1371 50.6314 89.3224 52.1743 87.8636C53.7172 86.4049 54.645 84.4122 54.7684 82.2925C54.8918 80.1728 54.2014 78.0859 52.8381 76.458C51.4749 74.8302 49.5417 73.784 47.4333 73.5333L46.4666 73.4749H40.5666ZM67.0833 67.0833C65.6485 68.5182 64.7865 70.4274 64.6592 72.4526C64.5319 74.4778 65.1478 76.4799 66.3916 78.0833L67.0833 78.8666L75.9249 87.7083C77.4246 89.2028 79.4369 90.0705 81.5531 90.1352C83.6694 90.1998 85.7309 89.4565 87.3189 88.0562C88.907 86.6559 89.9025 84.7037 90.1033 82.596C90.304 80.4883 89.695 78.3832 88.3999 76.7083L87.7083 75.9249L78.8749 67.0916C78.101 66.3168 77.1819 65.7021 76.1703 65.2828C75.1586 64.8634 74.0742 64.6475 72.9791 64.6475C71.884 64.6475 70.7996 64.8634 69.7879 65.2828C68.7763 65.7021 67.8572 66.3085 67.0833 67.0833ZM88.6416 23.2083C84.9083 34.4249 86.9083 46.7083 89.2416 55.2916C90.6439 60.6428 92.5699 65.8429 94.9916 70.8166C95.9784 72.7947 97.7106 74.2997 99.8071 75.0006C101.904 75.7015 104.193 75.5409 106.171 74.5541C108.149 73.5673 109.654 71.8351 110.355 69.7386C111.056 67.6421 110.895 65.353 109.908 63.3749C107.976 59.3795 106.441 55.2039 105.325 50.9083C103.433 43.9749 102.483 36.4499 103.942 30.2833L104.45 28.4833C104.813 27.4411 104.966 26.3372 104.899 25.2356C104.832 24.1339 104.547 23.0566 104.06 22.0661C103.573 21.0756 102.895 20.1916 102.064 19.4654C101.232 18.7393 100.265 18.1855 99.2185 17.8362C98.1716 17.4869 97.0657 17.349 95.9651 17.4305C94.8645 17.512 93.791 17.8114 92.807 18.3111C91.823 18.8109 90.9481 19.5012 90.233 20.3418C89.518 21.1825 88.977 22.1568 88.6416 23.2083ZM43.5166 43.5249C41.9543 45.0877 41.0767 47.2069 41.0767 49.4166C41.0767 51.6263 41.9543 53.7455 43.5166 55.3083L49.4083 61.1999C50.177 61.9958 51.0965 62.6307 52.1132 63.0674C53.1299 63.5042 54.2234 63.7341 55.3299 63.7437C56.4364 63.7533 57.5338 63.5425 58.5579 63.1234C59.582 62.7044 60.5125 62.0857 61.2949 61.3032C62.0773 60.5208 62.6961 59.5904 63.1151 58.5662C63.5341 57.5421 63.745 56.4448 63.7354 55.3383C63.7257 54.2318 63.4958 53.1383 63.0591 52.1216C62.6224 51.1049 61.9875 50.1853 61.1916 49.4166L55.2999 43.5249C53.7372 41.9627 51.618 41.085 49.4083 41.085C47.1986 41.085 45.0793 41.9627 43.5166 43.5249Z" fill="#F9C5D5" fill-opacity="0.25"/>
</svg>
