<svg width="200" height="200" viewBox="0 0 200 200" fill="none" xmlns="http://www.w3.org/2000/svg">
<path d="M67.3001 60.4999L68.0917 61.1916L138.808 131.9C139.735 132.826 140.431 133.957 140.838 135.202C141.246 136.447 141.354 137.771 141.155 139.066C140.955 140.361 140.453 141.59 139.689 142.654C138.925 143.719 137.921 144.588 136.758 145.192L135.792 145.608L49.2501 177.5C32.9834 183.5 17.1417 168.208 22.0834 151.967L22.5001 150.75L54.3834 64.2083C54.8049 63.0619 55.4733 62.0222 56.3412 61.1627C57.2091 60.3033 58.2553 59.6452 59.4058 59.2349C60.5562 58.8247 61.7828 58.6723 62.9987 58.7887C64.2145 58.905 65.39 59.2873 66.4417 59.9083L67.3001 60.4999ZM142.558 96.6999C150.15 97.0999 160.558 98.6999 169.608 104.133C171.443 105.221 172.791 106.971 173.374 109.022C173.958 111.074 173.732 113.271 172.744 115.161C171.756 117.052 170.081 118.491 168.064 119.184C166.047 119.876 163.841 119.768 161.9 118.883L161.033 118.425C155.35 115.008 148.083 113.675 141.683 113.342C139.046 113.189 136.402 113.2 133.767 113.375L131.133 113.633C128.96 113.914 126.763 113.327 125.019 111.999C123.275 110.671 122.124 108.71 121.816 106.539C121.508 104.369 122.068 102.165 123.373 100.405C124.679 98.644 126.626 97.4687 128.792 97.1333C133.356 96.5437 137.966 96.3958 142.558 96.6916M159.433 73.4749C161.557 73.4794 163.598 74.2942 165.141 75.7529C166.684 77.2117 167.612 79.2043 167.735 81.324C167.859 83.4437 167.168 85.5306 165.805 87.1585C164.442 88.7864 162.508 89.8325 160.4 90.0833L159.433 90.1416H153.533C151.41 90.1371 149.369 89.3224 147.826 87.8636C146.283 86.4049 145.355 84.4122 145.232 82.2925C145.108 80.1728 145.799 78.0859 147.162 76.458C148.525 74.8302 150.458 73.784 152.567 73.5333L153.533 73.4749H159.433ZM132.917 67.0833C134.352 68.5182 135.213 70.4274 135.341 72.4526C135.468 74.4778 134.852 76.4799 133.608 78.0833L132.917 78.8666L124.075 87.7083C122.575 89.2028 120.563 90.0705 118.447 90.1352C116.331 90.1998 114.269 89.4565 112.681 88.0562C111.093 86.6559 110.098 84.7037 109.897 82.596C109.696 80.4883 110.305 78.3832 111.6 76.7083L112.292 75.9249L121.125 67.0916C121.899 66.3168 122.818 65.7021 123.83 65.2828C124.841 64.8634 125.926 64.6475 127.021 64.6475C128.116 64.6475 129.2 64.8634 130.212 65.2828C131.224 65.7021 132.143 66.3085 132.917 67.0833ZM111.358 23.2083C115.092 34.4249 113.092 46.7083 110.758 55.2916C109.356 60.6428 107.43 65.8429 105.008 70.8166C104.022 72.7947 102.289 74.2997 100.193 75.0006C98.0964 75.7015 95.8073 75.5409 93.8292 74.5541C91.8512 73.5673 90.3461 71.8351 89.6452 69.7386C88.9443 67.6421 89.1049 65.353 90.0917 63.3749C92.0241 59.3795 93.5593 55.2039 94.6751 50.9083C96.5667 43.9749 97.5167 36.4499 96.0584 30.2833L95.5501 28.4833C95.1869 27.4411 95.0344 26.3372 95.1013 25.2356C95.1682 24.1339 95.4533 23.0566 95.94 22.0661C96.4267 21.0756 97.1053 20.1916 97.9365 19.4654C98.7676 18.7393 99.7347 18.1855 100.782 17.8362C101.828 17.4869 102.934 17.349 104.035 17.4305C105.136 17.512 106.209 17.8114 107.193 18.3111C108.177 18.8109 109.052 19.5012 109.767 20.3418C110.482 21.1825 111.023 22.1568 111.358 23.2083ZM156.483 43.5249C158.046 45.0877 158.923 47.2069 158.923 49.4166C158.923 51.6263 158.046 53.7455 156.483 55.3083L150.592 61.1999C149.823 61.9958 148.903 62.6307 147.887 63.0674C146.87 63.5042 145.777 63.7341 144.67 63.7437C143.564 63.7533 142.466 63.5425 141.442 63.1234C140.418 62.7044 139.488 62.0857 138.705 61.3032C137.923 60.5208 137.304 59.5904 136.885 58.5662C136.466 57.5421 136.255 56.4448 136.265 55.3383C136.274 54.2318 136.504 53.1383 136.941 52.1216C137.378 51.1049 138.012 50.1853 138.808 49.4166L144.7 43.5249C146.263 41.9627 148.382 41.085 150.592 41.085C152.801 41.085 154.921 41.9627 156.483 43.5249Z" fill="#F9C5D5" fill-opacity="0.25"/>
</svg>
