<svg width="70" height="70" viewBox="0 0 70 70" fill="none" xmlns="http://www.w3.org/2000/svg">
<path fill-rule="evenodd" clip-rule="evenodd" d="M35 11.6668C30.9188 11.6661 26.9089 12.7358 23.3704 14.7691C19.8319 16.8024 16.8885 19.7283 14.8342 23.2546C12.7798 26.781 11.6863 30.7845 11.6627 34.8655C11.6392 38.9466 12.6864 42.9624 14.7 46.5122C16.0609 44.7435 17.8104 43.3115 19.8131 42.3268C21.8159 41.3421 24.0182 40.8312 26.25 40.8335H43.75C45.9817 40.8312 48.184 41.3421 50.1868 42.3268C52.1895 43.3115 53.939 44.7435 55.2999 46.5122C57.3135 42.9624 58.3607 38.9466 58.3372 34.8655C58.3136 30.7845 57.2201 26.781 55.1657 23.2546C53.1114 19.7283 50.1681 16.8024 46.6295 14.7691C43.091 12.7358 39.0811 11.6661 35 11.6668ZM58.167 52.7218C62.0667 47.638 64.176 41.4074 64.1666 35.0002C64.1666 18.8914 51.1087 5.8335 35 5.8335C18.8912 5.8335 5.83328 18.8914 5.83328 35.0002C5.82366 41.4074 7.93301 47.6381 11.8329 52.7218L11.8183 52.7743L12.8537 53.9789C15.5892 57.1771 18.9857 59.744 22.809 61.5029C26.6323 63.2617 30.7915 64.1706 35 64.1668C40.913 64.1777 46.6882 62.3816 51.552 59.0189C53.6256 57.5863 55.5058 55.8923 57.1462 53.9789L58.1816 52.7743L58.167 52.7218ZM35 17.5002C32.6793 17.5002 30.4537 18.422 28.8128 20.063C27.1718 21.7039 26.25 23.9295 26.25 26.2502C26.25 28.5708 27.1718 30.7964 28.8128 32.4373C30.4537 34.0783 32.6793 35.0002 35 35.0002C37.3206 35.0002 39.5462 34.0783 41.1871 32.4373C42.8281 30.7964 43.75 28.5708 43.75 26.2502C43.75 23.9295 42.8281 21.7039 41.1871 20.063C39.5462 18.422 37.3206 17.5002 35 17.5002Z" fill="#F999B7"/>
</svg>
