<svg xmlns="http://www.w3.org/2000/svg" width="500" height="500" viewBox="0 0 500 500" version="1.1"><path d="M 107.312 168.945 C 104.926 170.029, 101.854 172.599, 100.174 174.918 C 97.203 179.019, 96.748 180.474, 90.778 204.931 L 87.500 218.363 70.500 224.024 C 61.150 227.137, 52.150 230.392, 50.500 231.257 C 45.650 233.799, 41.203 239.162, 39.934 244 C 37.254 254.219, 42.851 262.124, 59.500 271.635 C 65 274.777, 71.819 278.831, 74.654 280.643 L 79.809 283.939 80.442 293.720 C 82.763 329.571, 83.887 333.130, 94.254 337.462 C 103.644 341.385, 109.520 338.619, 126.274 322.386 C 141.386 307.744, 138.310 308.351, 158.285 316.072 C 176.720 323.197, 181.553 324.457, 187.177 323.607 C 196.440 322.206, 202.140 316.211, 202.793 307.184 C 203.129 302.543, 202.601 299.559, 200.227 292.671 L 197.238 284 203.869 283.955 C 207.516 283.930, 232.100 283.906, 258.500 283.902 C 313.420 283.893, 311 284.253, 311 276.108 L 311 271.263 318.464 270.784 C 322.569 270.521, 326.619 269.731, 327.464 269.030 C 328.818 267.906, 329 268.519, 329 274.223 C 329 284.606, 325.159 283.866, 379.228 283.892 C 419.827 283.911, 426.143 283.714, 427.471 282.386 C 429.447 280.410, 429.462 272.919, 427.504 266.326 C 426.180 261.866, 426.179 260.729, 427.493 256.395 C 429.348 250.283, 429.455 241.622, 427.694 240.161 C 426.798 239.417, 411.606 239.072, 379.245 239.059 C 340.738 239.045, 331.852 239.291, 330.737 240.406 C 329.590 241.553, 328.986 241.555, 326.936 240.419 C 323.395 238.455, 245.174 238.421, 242.492 240.382 C 240.977 241.490, 240.241 241.486, 238.087 240.362 C 234.674 238.581, 219.950 238.576, 215.694 240.355 C 212.967 241.494, 212.251 241.494, 211.187 240.355 C 210.491 239.610, 208.172 239, 206.034 239 L 202.146 239 205.530 233.381 C 212.892 221.154, 210.614 209.454, 199.790 203.903 C 195.327 201.614, 187.134 201.484, 166.500 203.374 C 153.955 204.523, 152.373 204.492, 151.279 203.078 C 150.608 202.210, 146.022 195.875, 141.087 189 C 130.898 174.805, 127.080 170.760, 121.782 168.551 C 116.872 166.503, 112.425 166.624, 107.312 168.945 M 107.290 171.965 C 101.852 175.280, 99.227 180.519, 96.475 193.550 C 93.691 206.726, 91.138 216.607, 89.857 219.163 C 89.334 220.206, 82.083 223.139, 70.415 227.028 C 56.693 231.602, 50.900 234.027, 48.352 236.264 C 41.728 242.080, 40.397 248.056, 44.045 255.594 C 46.297 260.244, 48.916 262.191, 68.678 273.904 C 75.376 277.874, 81.286 281.657, 81.811 282.311 C 82.336 282.965, 83.245 292.214, 83.831 302.864 C 84.762 319.765, 85.190 322.818, 87.199 326.863 C 91.456 335.436, 100.409 338.426, 108.790 334.073 C 110.830 333.013, 118.296 326.488, 125.380 319.573 C 132.463 312.658, 138.826 307, 139.518 307 C 141.429 307, 163.031 314.588, 169.659 317.588 C 177.782 321.264, 188.217 321.934, 192.759 319.072 C 194.552 317.942, 196.938 315.552, 198.062 313.759 C 200.947 309.160, 200.349 299.844, 196.553 290.250 L 193.684 283 187.842 283 C 184.629 283, 182 283.148, 182 283.328 C 182 283.508, 183.585 287.671, 185.523 292.578 C 189.221 301.944, 190.086 307.314, 188.200 309.200 C 186.519 310.881, 180.967 310.343, 175.419 307.964 C 165.777 303.827, 139.948 295, 137.488 295 C 135.615 295, 131.094 298.777, 119.533 310 C 106.576 322.578, 103.595 325, 101.075 325 C 99.007 325, 97.705 324.317, 96.899 322.811 C 96.254 321.607, 95.129 311.369, 94.399 300.061 C 93.668 288.752, 92.838 278.558, 92.555 277.406 C 92.045 275.331, 75.387 264.266, 64.393 258.697 C 53.001 252.928, 50.066 247.755, 56.102 244.084 C 57.808 243.046, 67.596 239.409, 77.852 236.001 C 88.638 232.416, 97.197 229.005, 98.154 227.909 C 99.569 226.289, 105.549 203.919, 107.486 193 C 109.770 180.127, 115.568 177.682, 122.181 186.802 C 135.760 205.531, 143.510 215.781, 145.199 217.246 C 146.763 218.603, 148.361 218.876, 152.356 218.469 C 177.949 215.863, 190.156 215.109, 192.477 215.991 C 197.734 217.990, 197.123 221.832, 189.998 231.592 L 184.954 238.500 189.727 239.138 C 192.352 239.490, 195.414 239.578, 196.531 239.335 C 198.666 238.871, 204.175 231.475, 205.954 226.685 C 207.599 222.258, 207.192 215.826, 205.044 212.304 C 200.574 204.973, 194.743 203.631, 175.500 205.509 C 167.800 206.260, 159.123 206.989, 156.218 207.130 L 150.937 207.386 141.992 194.943 C 126.392 173.242, 122.785 169.995, 114.282 170.004 C 112.202 170.006, 109.056 170.888, 107.290 171.965 M 114 261.500 L 114 280 121 280 L 128 280 128 274.559 C 128 267.136, 129.820 266.444, 130.199 273.722 L 130.500 279.500 137.250 279.796 L 144 280.091 144 275.884 C 144 273.569, 143.262 269.335, 142.360 266.473 C 140.840 261.651, 140.840 260.918, 142.360 256.457 C 143.262 253.810, 144 249.678, 144 247.276 L 144 242.909 137.250 243.204 L 130.500 243.500 130.199 249.278 C 129.820 256.556, 128 255.864, 128 248.441 L 128 243 121 243 L 114 243 114 261.500 M 149.646 245.452 L 147 247.905 147 263.998 L 147 280.091 153.750 279.796 L 160.500 279.500 160.809 275.227 C 161.190 269.952, 163 270.640, 163 276.059 L 163 280 170.069 280 L 177.138 280 176.819 263.911 L 176.500 247.822 173.694 245.411 C 171.164 243.237, 169.974 243, 161.590 243 C 153.106 243, 152.060 243.215, 149.646 245.452 M 179 261.500 L 179 280 186 280 L 193 280 193 274.559 C 193 267.136, 194.820 266.444, 195.199 273.722 L 195.500 279.500 202.250 279.796 L 209 280.091 209 275.884 C 209 273.569, 208.262 269.335, 207.360 266.473 C 205.840 261.651, 205.840 260.918, 207.360 256.457 C 208.262 253.810, 209 249.678, 209 247.276 L 209 242.909 202.250 243.204 L 195.500 243.500 195.199 249.278 C 194.820 256.556, 193 255.864, 193 248.441 L 193 243 186 243 L 179 243 179 261.500 M 214.646 245.452 L 212 247.905 212 263.998 L 212 280.091 218.750 279.796 L 225.500 279.500 225.809 275.227 C 226.190 269.952, 228 270.640, 228 276.059 L 228 280 235.069 280 L 242.138 280 241.819 263.911 L 241.500 247.822 238.694 245.411 C 236.164 243.237, 234.974 243, 226.590 243 C 218.106 243, 217.060 243.215, 214.646 245.452 M 244.457 244.253 C 244.178 244.979, 244.074 253.207, 244.225 262.537 L 244.500 279.500 251.217 279.795 L 257.934 280.090 258.217 269.041 C 258.596 254.239, 260.414 254.065, 260.783 268.795 L 261.066 280.090 267.783 279.795 L 274.500 279.500 274.783 268.250 C 275.159 253.262, 277 253.470, 277 268.500 L 277 280 284 280 L 291 280 291 261.500 L 291 243 280 243 L 269 243 269 247 C 269 252.061, 267.225 252.264, 266.810 247.250 L 266.500 243.500 255.732 243.216 C 247.526 243, 244.843 243.246, 244.457 244.253 M 293.227 261.250 L 293.500 279.500 300.201 279.795 L 306.902 280.089 307.201 273.795 L 307.500 267.500 316.174 267 C 323.588 266.573, 325.223 266.148, 327.424 264.076 C 329.707 261.927, 330 260.869, 330 254.780 C 330 248.818, 329.675 247.584, 327.545 245.455 C 325.143 243.052, 324.749 243, 309.023 243 L 292.955 243 293.227 261.250 M 333 261.500 L 333 280.091 339.750 279.796 L 346.500 279.500 346.500 261.500 L 346.500 243.500 339.750 243.204 L 333 242.909 333 261.500 M 349 261.500 L 349 280 356 280 L 363 280 363 268.500 C 363 261.500, 363.391 257, 364 257 C 364.609 257, 365 261.500, 365 268.500 L 365 280 379 280 L 393 280 393 261.500 L 393 243 386 243 L 379 243 379 254.500 C 379 261.500, 378.609 266, 378 266 C 377.391 266, 377 261.500, 377 254.500 L 377 243 363 243 L 349 243 349 261.500 M 395.443 244.287 C 395.172 244.994, 395.074 253.207, 395.225 262.537 L 395.500 279.500 402.199 279.795 L 408.898 280.089 409.199 274.295 C 409.364 271.108, 409.950 268.500, 410.500 268.500 C 411.050 268.500, 411.636 271.108, 411.801 274.295 L 412.102 280.089 418.801 279.795 C 425.124 279.517, 425.516 279.359, 425.794 276.981 C 425.956 275.595, 425.182 271.549, 424.074 267.989 L 422.059 261.517 424.091 254.695 C 427.191 244.287, 426.856 243.560, 418.801 243.205 L 412.102 242.911 411.801 248.467 C 411.412 255.640, 409.590 255.671, 409.200 248.512 L 408.900 243 402.419 243 C 398.057 243, 395.776 243.421, 395.443 244.287 M 161 257 C 161 258.650, 161.450 260, 162 260 C 162.550 260, 163 258.650, 163 257 C 163 255.350, 162.550 254, 162 254 C 161.450 254, 161 255.350, 161 257 M 226 257 C 226 258.650, 226.450 260, 227 260 C 227.550 260, 228 258.650, 228 257 C 228 255.350, 227.550 254, 227 254 C 226.450 254, 226 255.350, 226 257 M 307.500 255 C 307.840 255.550, 309.891 256, 312.059 256 C 314.227 256, 316 255.550, 316 255 C 316 254.450, 313.948 254, 311.441 254 C 308.656 254, 307.122 254.389, 307.500 255" stroke="none" fill="#e9d9dc" fill-rule="evenodd"/><path d="M 107.290 171.965 C 101.852 175.280, 99.227 180.519, 96.475 193.550 C 93.691 206.726, 91.138 216.607, 89.857 219.163 C 89.334 220.206, 82.083 223.139, 70.415 227.028 C 56.693 231.602, 50.900 234.027, 48.352 236.264 C 41.728 242.080, 40.397 248.056, 44.045 255.594 C 46.297 260.244, 48.916 262.191, 68.678 273.904 C 75.376 277.874, 81.286 281.657, 81.811 282.311 C 82.336 282.965, 83.245 292.214, 83.831 302.864 C 84.762 319.765, 85.190 322.818, 87.199 326.863 C 91.456 335.436, 100.409 338.426, 108.790 334.073 C 110.830 333.013, 118.296 326.488, 125.380 319.573 C 132.463 312.658, 138.826 307, 139.518 307 C 141.429 307, 163.031 314.588, 169.659 317.588 C 177.782 321.264, 188.217 321.934, 192.759 319.072 C 194.552 317.942, 196.938 315.552, 198.062 313.759 C 200.947 309.160, 200.349 299.844, 196.553 290.250 L 193.684 283 187.842 283 C 184.629 283, 182 283.148, 182 283.328 C 182 283.508, 183.585 287.671, 185.523 292.578 C 189.221 301.944, 190.086 307.314, 188.200 309.200 C 186.519 310.881, 180.967 310.343, 175.419 307.964 C 165.777 303.827, 139.948 295, 137.488 295 C 135.615 295, 131.094 298.777, 119.533 310 C 106.576 322.578, 103.595 325, 101.075 325 C 99.007 325, 97.705 324.317, 96.899 322.811 C 96.254 321.607, 95.129 311.369, 94.399 300.061 C 93.668 288.752, 92.838 278.558, 92.555 277.406 C 92.045 275.331, 75.387 264.266, 64.393 258.697 C 53.001 252.928, 50.066 247.755, 56.102 244.084 C 57.808 243.046, 67.596 239.409, 77.852 236.001 C 88.638 232.416, 97.197 229.005, 98.154 227.909 C 99.569 226.289, 105.549 203.919, 107.486 193 C 109.770 180.127, 115.568 177.682, 122.181 186.802 C 135.760 205.531, 143.510 215.781, 145.199 217.246 C 146.763 218.603, 148.361 218.876, 152.356 218.469 C 177.949 215.863, 190.156 215.109, 192.477 215.991 C 197.734 217.990, 197.123 221.832, 189.998 231.592 L 184.954 238.500 189.727 239.138 C 192.352 239.490, 195.414 239.578, 196.531 239.335 C 198.666 238.871, 204.175 231.475, 205.954 226.685 C 207.599 222.258, 207.192 215.826, 205.044 212.304 C 200.574 204.973, 194.743 203.631, 175.500 205.509 C 167.800 206.260, 159.123 206.989, 156.218 207.130 L 150.937 207.386 141.992 194.943 C 126.392 173.242, 122.785 169.995, 114.282 170.004 C 112.202 170.006, 109.056 170.888, 107.290 171.965 M 343.222 191.500 C 343.415 192.050, 345.244 195.862, 347.287 199.972 C 349.329 204.081, 350.998 208.581, 350.996 209.972 C 350.990 214.059, 347.444 218.726, 340.541 223.733 C 336.989 226.309, 334.186 228.519, 334.312 228.645 C 334.438 228.771, 338.067 227.103, 342.376 224.937 C 354.796 218.695, 358.965 219.752, 366.987 231.176 C 372.592 239.157, 373.460 239.339, 369.119 231.622 C 365.353 224.926, 363.663 219.478, 364.419 216.465 C 365.285 213.018, 370.224 207.706, 376.028 203.982 C 383.484 199.197, 382.014 198.729, 373.515 203.183 C 361.493 209.482, 356.163 208.611, 349.682 199.287 C 346.038 194.045, 342.706 190.029, 343.222 191.500 M 409.668 205.568 C 399.554 207.141, 389.128 209.922, 377.197 214.230 C 368.065 217.527, 366.758 219.085, 375.176 216.637 C 383.486 214.221, 398.756 212.007, 407 212.021 C 447.872 212.094, 457.725 240.380, 430.260 278.801 C 413.352 302.455, 379.779 329.171, 347.500 344.658 C 343.650 346.505, 341.625 347.752, 343 347.429 C 348.897 346.045, 360.376 341.280, 372.242 335.291 C 411.149 315.654, 446.302 283.629, 459.535 255.764 C 463.752 246.883, 466.276 235.638, 465.371 229.754 C 462.282 209.669, 441.450 200.624, 409.668 205.568 M 114 261.500 L 114 280 121 280 L 128 280 128 274.559 C 128 267.136, 129.820 266.444, 130.199 273.722 L 130.500 279.500 137.250 279.796 L 144 280.091 144 275.884 C 144 273.569, 143.262 269.335, 142.360 266.473 C 140.840 261.651, 140.840 260.918, 142.360 256.457 C 143.262 253.810, 144 249.678, 144 247.276 L 144 242.909 137.250 243.204 L 130.500 243.500 130.199 249.278 C 129.820 256.556, 128 255.864, 128 248.441 L 128 243 121 243 L 114 243 114 261.500 M 149.646 245.452 L 147 247.905 147 263.998 L 147 280.091 153.750 279.796 L 160.500 279.500 160.809 275.227 C 161.190 269.952, 163 270.640, 163 276.059 L 163 280 170.069 280 L 177.138 280 176.819 263.911 L 176.500 247.822 173.694 245.411 C 171.164 243.237, 169.974 243, 161.590 243 C 153.106 243, 152.060 243.215, 149.646 245.452 M 179 261.500 L 179 280 186 280 L 193 280 193 274.559 C 193 267.136, 194.820 266.444, 195.199 273.722 L 195.500 279.500 202.250 279.796 L 209 280.091 209 275.884 C 209 273.569, 208.262 269.335, 207.360 266.473 C 205.840 261.651, 205.840 260.918, 207.360 256.457 C 208.262 253.810, 209 249.678, 209 247.276 L 209 242.909 202.250 243.204 L 195.500 243.500 195.199 249.278 C 194.820 256.556, 193 255.864, 193 248.441 L 193 243 186 243 L 179 243 179 261.500 M 214.646 245.452 L 212 247.905 212 263.998 L 212 280.091 218.750 279.796 L 225.500 279.500 225.809 275.227 C 226.190 269.952, 228 270.640, 228 276.059 L 228 280 235.069 280 L 242.138 280 241.819 263.911 L 241.500 247.822 238.694 245.411 C 236.164 243.237, 234.974 243, 226.590 243 C 218.106 243, 217.060 243.215, 214.646 245.452 M 244.457 244.253 C 244.178 244.979, 244.074 253.207, 244.225 262.537 L 244.500 279.500 251.217 279.795 L 257.934 280.090 258.217 269.041 C 258.596 254.239, 260.414 254.065, 260.783 268.795 L 261.066 280.090 267.783 279.795 L 274.500 279.500 274.783 268.250 C 275.159 253.262, 277 253.470, 277 268.500 L 277 280 284 280 L 291 280 291 261.500 L 291 243 280 243 L 269 243 269 247 C 269 252.061, 267.225 252.264, 266.810 247.250 L 266.500 243.500 255.732 243.216 C 247.526 243, 244.843 243.246, 244.457 244.253 M 293.227 261.250 L 293.500 279.500 300.201 279.795 L 306.902 280.089 307.201 273.795 L 307.500 267.500 316.174 267 C 323.588 266.573, 325.223 266.148, 327.424 264.076 C 329.707 261.927, 330 260.869, 330 254.780 C 330 248.818, 329.675 247.584, 327.545 245.455 C 325.143 243.052, 324.749 243, 309.023 243 L 292.955 243 293.227 261.250 M 333 261.500 L 333 280.091 339.750 279.796 L 346.500 279.500 346.500 261.500 L 346.500 243.500 339.750 243.204 L 333 242.909 333 261.500 M 349 261.500 L 349 280 356 280 L 363 280 363 268.500 C 363 261.500, 363.391 257, 364 257 C 364.609 257, 365 261.500, 365 268.500 L 365 280 379 280 L 393 280 393 261.500 L 393 243 386 243 L 379 243 379 254.500 C 379 261.500, 378.609 266, 378 266 C 377.391 266, 377 261.500, 377 254.500 L 377 243 363 243 L 349 243 349 261.500 M 395.443 244.287 C 395.172 244.994, 395.074 253.207, 395.225 262.537 L 395.500 279.500 402.199 279.795 L 408.898 280.089 409.199 274.295 C 409.364 271.108, 409.950 268.500, 410.500 268.500 C 411.050 268.500, 411.636 271.108, 411.801 274.295 L 412.102 280.089 418.801 279.795 C 425.124 279.517, 425.516 279.359, 425.794 276.981 C 425.956 275.595, 425.182 271.549, 424.074 267.989 L 422.059 261.517 424.091 254.695 C 427.191 244.287, 426.856 243.560, 418.801 243.205 L 412.102 242.911 411.801 248.467 C 411.412 255.640, 409.590 255.671, 409.200 248.512 L 408.900 243 402.419 243 C 398.057 243, 395.776 243.421, 395.443 244.287 M 161 257 C 161 258.650, 161.450 260, 162 260 C 162.550 260, 163 258.650, 163 257 C 163 255.350, 162.550 254, 162 254 C 161.450 254, 161 255.350, 161 257 M 226 257 C 226 258.650, 226.450 260, 227 260 C 227.550 260, 228 258.650, 228 257 C 228 255.350, 227.550 254, 227 254 C 226.450 254, 226 255.350, 226 257 M 307.500 255 C 307.840 255.550, 309.891 256, 312.059 256 C 314.227 256, 316 255.550, 316 255 C 316 254.450, 313.948 254, 311.441 254 C 308.656 254, 307.122 254.389, 307.500 255" stroke="none" fill="#eb2e7d" fill-rule="evenodd"/></svg>